<mxfile host="app.diagrams.net" modified="2023-10-23T09:20:34.425Z" agent="Mozilla/5.0 (Windows NT 10.0; Win64; x64) AppleWebKit/537.36 (KHTML, like Gecko) Chrome/118.0.0.0 Safari/537.36 Edg/118.0.2088.57" etag="CZLun6Em0dGvtn8xhx-L" version="22.0.6" type="onedrive">
  <diagram name="Page-1" id="czHpeLiHKQiKcmoh3-77">
    <mxGraphModel grid="0" page="0" gridSize="10" guides="1" tooltips="1" connect="1" arrows="1" fold="1" pageScale="1" pageWidth="827" pageHeight="1169" math="0" shadow="0">
      <root>
        <mxCell id="0" />
        <mxCell id="1" parent="0" />
        <mxCell id="8XHM9ljHUq1U2Wp-Lqn_-18" value="" style="edgeStyle=none;curved=1;rounded=0;orthogonalLoop=1;jettySize=auto;html=1;fontSize=12;startSize=8;endSize=8;" edge="1" parent="1" source="8XHM9ljHUq1U2Wp-Lqn_-2" target="8XHM9ljHUq1U2Wp-Lqn_-8">
          <mxGeometry relative="1" as="geometry" />
        </mxCell>
        <mxCell id="8XHM9ljHUq1U2Wp-Lqn_-2" value="&lt;br&gt;&lt;br&gt;&lt;br&gt;&lt;p class=&quot;MsoNormal&quot;&gt;&lt;br&gt;&lt;/p&gt;&lt;p class=&quot;MsoNormal&quot;&gt;&lt;br&gt;&lt;/p&gt;&lt;p class=&quot;MsoNormal&quot;&gt;Inclure les bibliothèques Esplora, TFT et SPI et 1 et déclarer deux variables xPos et&lt;br&gt;yPos pour stocker les coordonnées du point&lt;br&gt;central de l’écran TFT.&lt;/p&gt;&lt;br&gt;&lt;br&gt;&lt;br&gt;&lt;br&gt;&lt;br&gt;" style="rounded=0;whiteSpace=wrap;html=1;fontSize=16;" vertex="1" parent="1">
          <mxGeometry x="-10" y="-291" width="449" height="116" as="geometry" />
        </mxCell>
        <mxCell id="8XHM9ljHUq1U2Wp-Lqn_-11" value="" style="edgeStyle=none;curved=1;rounded=0;orthogonalLoop=1;jettySize=auto;html=1;fontSize=12;startSize=8;endSize=8;" edge="1" parent="1">
          <mxGeometry relative="1" as="geometry">
            <mxPoint x="212.91941605839415" y="-22" as="sourcePoint" />
            <mxPoint x="214.08" y="84" as="targetPoint" />
          </mxGeometry>
        </mxCell>
        <mxCell id="8XHM9ljHUq1U2Wp-Lqn_-8" value="&lt;p class=&quot;MsoNormal&quot;&gt;&lt;font&gt;Initialisation de la communication série avec un débit de&lt;br/&gt;9600 bauds dans une fonction setup, initialise l&#39;écran TFT, définit la couleur&lt;br/&gt;d&#39;arrière-plan, la couleur du trait, et la taille du texte pour l&#39;écran TFT,&lt;br/&gt;puis affiche un texte statique à l&#39;écran.&lt;/font&gt;&lt;/p&gt;" style="rounded=0;whiteSpace=wrap;html=1;fontSize=16;" vertex="1" parent="1">
          <mxGeometry x="27" y="-108" width="373" height="153" as="geometry" />
        </mxCell>
        <mxCell id="8XHM9ljHUq1U2Wp-Lqn_-21" value="" style="edgeStyle=none;curved=1;rounded=0;orthogonalLoop=1;jettySize=auto;html=1;fontSize=12;startSize=8;endSize=8;" edge="1" parent="1" source="8XHM9ljHUq1U2Wp-Lqn_-10" target="8XHM9ljHUq1U2Wp-Lqn_-20">
          <mxGeometry relative="1" as="geometry" />
        </mxCell>
        <mxCell id="8XHM9ljHUq1U2Wp-Lqn_-10" value="Lecture des valeurs du slider et des états de trois boutons switch 1, 2 et 3. " style="rounded=0;whiteSpace=wrap;html=1;fontSize=16;" vertex="1" parent="1">
          <mxGeometry x="34" y="82" width="384" height="92" as="geometry" />
        </mxCell>
        <mxCell id="8XHM9ljHUq1U2Wp-Lqn_-23" value="" style="edgeStyle=none;curved=1;rounded=0;orthogonalLoop=1;jettySize=auto;html=1;fontSize=12;startSize=8;endSize=8;" edge="1" parent="1" source="8XHM9ljHUq1U2Wp-Lqn_-20" target="8XHM9ljHUq1U2Wp-Lqn_-22">
          <mxGeometry relative="1" as="geometry" />
        </mxCell>
        <mxCell id="8XHM9ljHUq1U2Wp-Lqn_-20" value="&lt;p class=&quot;MsoNormal&quot;&gt;&lt;font&gt;Envoie des valeurs via la communication série (Serial) vers&lt;br/&gt;l&#39;ordinateur. Les valeurs sont séparées par des virgules, et une nouvelle ligne&lt;br/&gt;est ajoutée à la fin.&lt;/font&gt;&lt;/p&gt;" style="whiteSpace=wrap;html=1;fontSize=16;rounded=0;" vertex="1" parent="1">
          <mxGeometry x="31" y="256" width="384" height="114" as="geometry" />
        </mxCell>
        <mxCell id="8XHM9ljHUq1U2Wp-Lqn_-25" value="" style="edgeStyle=none;curved=1;rounded=0;orthogonalLoop=1;jettySize=auto;html=1;fontSize=12;startSize=8;endSize=8;" edge="1" parent="1" source="8XHM9ljHUq1U2Wp-Lqn_-22">
          <mxGeometry relative="1" as="geometry">
            <mxPoint x="233" y="673" as="targetPoint" />
          </mxGeometry>
        </mxCell>
        <mxCell id="8XHM9ljHUq1U2Wp-Lqn_-22" value="&lt;p class=&quot;MsoNormal&quot;&gt;&lt;font&gt;Conversion des valeurs des boutons (s1, s2, s3, s4) en une&lt;br/&gt;seule chaîne de caractères (String) et le stockage dans le tableau screenPrint.&lt;/font&gt;&lt;/p&gt;" style="rounded=0;whiteSpace=wrap;html=1;fontSize=16;" vertex="1" parent="1">
          <mxGeometry x="13" y="459" width="431" height="118" as="geometry" />
        </mxCell>
        <mxCell id="8XHM9ljHUq1U2Wp-Lqn_-24" value="&lt;p class=&quot;MsoNormal&quot;&gt;&lt;font&gt;Affichage de chaîne de caractères à l’écran TFT à la&lt;br&gt;position (0, 30).&lt;/font&gt;&lt;/p&gt;&lt;span style=&quot;background-color: initial;&quot;&gt;Ajoute d’une petite pause de 10 millisecondes (pour éviter&lt;/span&gt;&lt;br&gt;&lt;p class=&quot;MsoNormal&quot;&gt;&lt;font&gt;une mise à jour trop rapide de l’écran).&lt;/font&gt;&lt;span style=&quot;background-color: initial;&quot;&gt;.&lt;/span&gt;&lt;/p&gt;" style="whiteSpace=wrap;html=1;fontSize=16;rounded=0;" vertex="1" parent="1">
          <mxGeometry x="-14" y="678" width="513" height="154" as="geometry" />
        </mxCell>
        <mxCell id="8XHM9ljHUq1U2Wp-Lqn_-28" value="" style="edgeStyle=none;curved=1;rounded=0;orthogonalLoop=1;jettySize=auto;html=1;fontSize=12;startSize=8;endSize=8;entryX=0.481;entryY=0.012;entryDx=0;entryDy=0;entryPerimeter=0;" edge="1" parent="1" source="8XHM9ljHUq1U2Wp-Lqn_-26" target="8XHM9ljHUq1U2Wp-Lqn_-27">
          <mxGeometry relative="1" as="geometry">
            <mxPoint x="931" y="-80" as="targetPoint" />
          </mxGeometry>
        </mxCell>
        <mxCell id="8XHM9ljHUq1U2Wp-Lqn_-26" value="&lt;p style=&quot;margin-left:36.0pt&quot; class=&quot;MsoNormal&quot;&gt;&lt;font&gt;Création d’un tableau &lt;b&gt;EsploraList&lt;/b&gt; pour stocker deux&lt;br/&gt;objets de communication série, généralement utilisés pour communiquer avec un&lt;br/&gt;Arduino.&lt;/font&gt;&lt;/p&gt;" style="rounded=0;whiteSpace=wrap;html=1;fontSize=16;" vertex="1" parent="1">
          <mxGeometry x="658" y="-291" width="545" height="122" as="geometry" />
        </mxCell>
        <mxCell id="8XHM9ljHUq1U2Wp-Lqn_-30" value="" style="edgeStyle=none;curved=1;rounded=0;orthogonalLoop=1;jettySize=auto;html=1;fontSize=12;startSize=8;endSize=8;" edge="1" parent="1" source="8XHM9ljHUq1U2Wp-Lqn_-27">
          <mxGeometry relative="1" as="geometry">
            <mxPoint x="935" y="146" as="targetPoint" />
          </mxGeometry>
        </mxCell>
        <mxCell id="8XHM9ljHUq1U2Wp-Lqn_-27" value="&lt;p style=&quot;margin-left:36.0pt&quot; class=&quot;MsoNormal&quot;&gt;&lt;font&gt;Initialisation d’une variable &lt;b&gt;portNumber&lt;/b&gt; pour stocker&lt;br/&gt;le numéro du port de communication série que le code utilisera et d’une autre&lt;br/&gt;variable &lt;b&gt;portCount&lt;/b&gt; pour suivre le nombre de ports de communication série&lt;br/&gt;initialisés.&lt;/font&gt;&lt;/p&gt;" style="whiteSpace=wrap;html=1;fontSize=16;rounded=0;" vertex="1" parent="1">
          <mxGeometry x="661" y="-72" width="547" height="113" as="geometry" />
        </mxCell>
        <mxCell id="8XHM9ljHUq1U2Wp-Lqn_-34" value="" style="edgeStyle=none;curved=1;rounded=0;orthogonalLoop=1;jettySize=auto;html=1;fontSize=12;startSize=8;endSize=8;" edge="1" parent="1" source="8XHM9ljHUq1U2Wp-Lqn_-29" target="8XHM9ljHUq1U2Wp-Lqn_-33">
          <mxGeometry relative="1" as="geometry" />
        </mxCell>
        <mxCell id="8XHM9ljHUq1U2Wp-Lqn_-29" value="&lt;p class=&quot;MsoNormal&quot;&gt;&lt;font&gt;&amp;nbsp;Définition des variables et des formes pour&lt;br&gt;représenter un robot en 3D. Ces formes sont chargées à partir de fichiers 3D externes.&lt;/font&gt;&lt;/p&gt;" style="whiteSpace=wrap;html=1;fontSize=16;rounded=0;" vertex="1" parent="1">
          <mxGeometry x="664.5" y="150" width="540" height="150.5" as="geometry" />
        </mxCell>
        <mxCell id="8XHM9ljHUq1U2Wp-Lqn_-36" value="" style="edgeStyle=none;curved=1;rounded=0;orthogonalLoop=1;jettySize=auto;html=1;fontSize=12;startSize=8;endSize=8;" edge="1" parent="1" source="8XHM9ljHUq1U2Wp-Lqn_-33" target="8XHM9ljHUq1U2Wp-Lqn_-35">
          <mxGeometry relative="1" as="geometry" />
        </mxCell>
        <mxCell id="8XHM9ljHUq1U2Wp-Lqn_-33" value="&lt;p class=&quot;MsoNormal&quot;&gt;&lt;font&gt;Configuration de la fenêtre graphique et chargement des formes du robot. La fonction seteup() désactive&lt;br&gt;les styles pour les formes du robot.&lt;/font&gt;&lt;/p&gt;" style="whiteSpace=wrap;html=1;fontSize=16;rounded=0;" vertex="1" parent="1">
          <mxGeometry x="660" y="409" width="554" height="127" as="geometry" />
        </mxCell>
        <mxCell id="8XHM9ljHUq1U2Wp-Lqn_-38" value="" style="edgeStyle=none;curved=1;rounded=0;orthogonalLoop=1;jettySize=auto;html=1;fontSize=12;startSize=8;endSize=8;" edge="1" parent="1" source="8XHM9ljHUq1U2Wp-Lqn_-35" target="8XHM9ljHUq1U2Wp-Lqn_-37">
          <mxGeometry relative="1" as="geometry" />
        </mxCell>
        <mxCell id="8XHM9ljHUq1U2Wp-Lqn_-35" value="Lancement en boucle de l&#39;affichage&lt;br style=&quot;border-color: var(--border-color);&quot;&gt;&lt;br style=&quot;border-color: var(--border-color);&quot;&gt;&lt;font&gt;en 3D du robot et de sphères. Déplacement d&#39;un rectangle en&lt;/font&gt;&lt;br style=&quot;border-color: var(--border-color);&quot;&gt;&lt;br style=&quot;border-color: var(--border-color);&quot;&gt;fonction des données provenant de la communication série." style="whiteSpace=wrap;html=1;fontSize=16;rounded=0;" vertex="1" parent="1">
          <mxGeometry x="666" y="652" width="537" height="148.13" as="geometry" />
        </mxCell>
        <mxCell id="8XHM9ljHUq1U2Wp-Lqn_-37" value="&lt;ol type=&quot;1&quot; start=&quot;26&quot; style=&quot;margin-top:0cm&quot;&gt;&lt;p class=&quot;MsoNormal&quot;&gt;&lt;font&gt;Etablissement d’une connexion série avec un appareil externe (comme un Arduino) via la fonction choosePort. Elle initialise un objet Serial à partir d&#39;une liste de ports série&lt;br&gt;disponibles.&lt;/font&gt;&lt;/p&gt;&lt;/ol&gt;" style="whiteSpace=wrap;html=1;fontSize=16;rounded=0;" vertex="1" parent="1">
          <mxGeometry x="681" y="878" width="505" height="146.2" as="geometry" />
        </mxCell>
      </root>
    </mxGraphModel>
  </diagram>
</mxfile>
